<?xml version="1.0" standalone="no"?>
<!DOCTYPE svg PUBLIC "-//W3C//DTD SVG 20010904//EN"
 "http://www.w3.org/TR/2001/REC-SVG-20010904/DTD/svg10.dtd">
<svg version="1.0" xmlns="http://www.w3.org/2000/svg"
 width="500.000000pt" height="500.000000pt" viewBox="0 0 500.000000 500.000000"
 preserveAspectRatio="xMidYMid meet">
<metadata>
Created by potrace 1.14, written by Peter Selinger 2001-2017
</metadata>
<g transform="translate(0.000000,500.000000) scale(0.100000,-0.100000)"
fill="#000000" stroke="none">
<path d="M2288 4865 c-2 -2 -48 -7 -129 -14 -9 -1 -8 -151 1 -156 24 -15 396
-27 443 -14 16 5 27 4 27 -2 0 -6 5 -7 12 -3 6 4 25 8 42 8 17 1 37 5 44 10 7
4 12 2 12 -5 0 -7 7 -5 18 6 14 15 18 34 17 82 -1 35 -4 66 -8 69 -3 4 -26 8
-49 11 -53 5 -425 12 -430 8z"/>
<path d="M2386 4601 c-2 -3 -4 -38 -3 -77 0 -39 -2 -75 -5 -80 -3 -5 -2 -18 2
-29 4 -11 4 -32 -1 -47 -4 -14 -5 -29 -2 -32 10 -10 9 -431 -1 -445 -6 -8 -11
-104 -11 -240 l0 -226 -55 -2 c-154 -4 -199 -17 -243 -67 -25 -28 -48 -72 -53
-104 -3 -15 -6 -28 -7 -29 -3 -2 -69 -3 -227 -3 -141 1 -189 -5 -240 -28 -46
-21 -115 -86 -130 -123 -7 -16 -16 -29 -20 -29 -3 0 -7 -6 -7 -12 0 -7 -5 -31
-10 -53 -5 -22 -8 -140 -8 -262 0 -123 -2 -223 -5 -223 -3 0 -5 -40 -5 -90 0
-49 2 -90 5 -90 3 0 5 -16 5 -35 0 -19 -4 -34 -9 -32 -10 3 -10 5 -19 80 -6
49 -43 126 -61 129 -34 4 -44 3 -71 -11 -16 -8 -40 -16 -51 -17 -12 -2 -50
-15 -85 -29 -127 -54 -120 -51 -138 -54 -4 0 -19 -11 -33 -23 -34 -31 -67 -50
-77 -44 -9 6 10 -72 22 -91 9 -14 15 -52 22 -124 2 -25 10 -72 18 -105 8 -32
14 -70 14 -84 0 -14 3 -45 8 -70 4 -25 8 -62 9 -82 1 -21 5 -41 9 -44 4 -4 3
-12 -2 -18 -14 -18 -17 -81 -4 -79 7 2 10 -3 7 -11 -3 -8 -1 -17 4 -20 5 -3
12 3 15 14 3 12 14 20 27 20 22 0 102 39 108 53 2 4 8 4 13 1 6 -3 16 -1 23 6
12 9 12 15 0 39 -14 28 -21 117 -12 155 3 11 10 22 16 24 7 2 10 8 6 13 -3 5
-14 4 -27 -3 -21 -10 -21 -10 -7 7 13 15 68 45 85 45 3 0 5 -7 5 -15 0 -8 4
-15 9 -15 5 0 14 -13 21 -29 6 -16 18 -32 25 -35 7 -2 16 -18 20 -35 3 -16 15
-42 26 -56 16 -20 24 -23 39 -15 27 15 39 12 35 -7 -1 -10 0 -22 4 -28 3 -5 6
-176 7 -380 1 -203 4 -377 7 -385 2 -8 8 -30 12 -47 4 -18 11 -33 16 -33 5 0
9 -7 9 -15 0 -15 53 -74 92 -103 9 -7 40 -22 68 -32 50 -18 89 -19 899 -17
l846 2 55 27 c72 35 124 90 153 161 23 56 23 62 25 467 0 226 4 415 7 420 4 6
12 7 18 3 7 -4 17 -8 22 -9 6 -1 39 -10 75 -19 36 -10 83 -19 105 -20 22 -2
54 -8 70 -14 17 -6 35 -13 42 -16 16 -6 36 22 38 53 1 15 3 32 5 37 1 6 2 20
1 31 -1 22 -19 28 -176 60 -41 8 -49 21 -50 84 -1 67 -6 64 75 45 14 -3 40 -6
59 -7 24 -1 35 -7 39 -20 2 -10 12 -18 21 -18 15 0 17 11 16 80 -1 85 -2 88
-31 95 -51 11 -122 33 -140 43 -18 10 -21 20 -19 77 1 36 5 68 9 72 3 3 32 0
63 -8 32 -8 68 -14 81 -13 12 0 22 -4 22 -8 0 -10 11 -10 29 1 18 12 26 119
10 137 -6 7 -26 13 -44 12 -19 -1 -40 4 -47 10 -8 6 -34 13 -60 16 -25 3 -58
10 -72 16 -14 5 -26 7 -26 4 0 -2 -8 0 -18 5 -10 5 -24 6 -32 1 -8 -5 -21 -3
-33 5 -15 10 -25 11 -39 4 -17 -9 -19 -8 -16 8 2 10 8 17 14 16 64 -10 74 -10
74 2 0 7 -18 15 -45 19 l-45 7 0 57 c-2 330 -6 397 -29 445 -28 61 -92 124
-151 149 -46 20 -227 40 -236 26 -3 -4 -12 -4 -20 -1 -9 3 -59 6 -111 7 -85 1
-96 3 -99 19 -1 10 -14 42 -28 70 -18 37 -37 59 -67 75 -47 27 -75 32 -181 33
l-78 1 0 72 c-1 39 -3 143 -6 231 -2 88 -6 288 -9 444 -2 156 -6 286 -9 288
-3 3 -2 13 2 22 4 9 6 25 6 36 -1 11 -2 36 -3 55 l-1 36 -71 0 c-38 0 -72 -2
-73 -5z m-20 -1339 c0 -18 -3 -35 -7 -38 -10 -6 -210 -7 -216 -1 -3 3 -2 14 1
25 11 33 58 48 143 47 l78 -1 1 -32z m392 3 c12 -15 20 -31 17 -36 -4 -5 -55
-9 -114 -9 l-109 0 -4 30 c-6 42 9 48 106 44 73 -3 83 -5 104 -29z m426 -347
c10 -10 21 -18 26 -18 12 0 52 -71 55 -97 1 -12 -1 -26 -4 -32 -10 -16 -49 15
-53 41 -2 11 -19 34 -39 50 l-36 29 -664 0 c-365 1 -676 -2 -691 -6 -28 -7
-78 -63 -78 -88 0 -15 -20 -27 -45 -27 -12 0 -16 39 -5 50 3 3 14 22 24 43 11
20 25 37 33 37 7 0 13 4 13 9 0 25 92 28 751 27 648 -1 697 -2 713 -18z m426
-487 c0 -5 -9 -11 -20 -14 -17 -4 -18 -2 -9 14 9 18 29 18 29 0z m220 -33 c0
-4 -4 -8 -9 -8 -6 0 -12 4 -15 8 -3 5 1 9 9 9 8 0 15 -4 15 -9z m-2673 -130
c21 -28 37 -82 25 -86 -7 -2 -8 -11 -3 -25 5 -12 5 -31 1 -42 -4 -11 -6 -23
-4 -26 2 -3 -19 -18 -47 -34 -45 -24 -63 -26 -65 -7 0 4 -4 32 -9 62 -17 111
-15 125 19 139 17 7 38 16 46 21 21 12 26 12 37 -2z m-253 -33 c-3 -7 -12 -16
-20 -19 -9 -3 -12 -1 -9 4 3 6 0 10 -7 10 -8 1 -6 6 6 15 22 16 38 11 30 -10z
m460 -13 c2 -4 1 -14 -3 -21 -6 -9 -10 -7 -14 8 -5 20 7 29 17 13z m-146 -147
c-2 -33 -23 -56 -31 -32 -3 11 20 67 29 67 3 0 4 -16 2 -35z m147 -100 c0 -52
-3 -95 -7 -95 -4 0 -5 -7 -2 -15 4 -8 2 -15 -3 -15 -7 0 -43 70 -56 112 -3 9
3 24 14 34 10 9 19 23 19 31 0 13 20 42 30 43 3 0 5 -43 5 -95z m2347 78 c-6
-2 -10 -8 -8 -11 2 -4 -5 -16 -15 -26 -18 -18 -18 -18 -14 3 6 31 14 41 33 40
11 0 12 -2 4 -6z m-138 -254 c-6 -11 -24 -2 -24 11 0 5 7 7 15 4 8 -4 12 -10
9 -15z m-2500 -111 c-5 -7 -9 -16 -9 -20 0 -12 -15 -22 -15 -10 0 15 23 53 28
47 2 -2 0 -10 -4 -17z m41 -28 c3 -5 2 -10 -4 -10 -5 0 -13 5 -16 10 -3 6 -2
10 4 10 5 0 13 -4 16 -10z"/>
<path d="M3656 2508 c3 -5 10 -6 15 -3 13 9 11 12 -6 12 -8 0 -12 -4 -9 -9z"/>
<path d="M1310 2466 c0 -4 7 -14 15 -22 8 -9 15 -11 15 -6 0 5 -7 15 -15 22
-8 7 -15 9 -15 6z"/>
<path d="M4124 2326 c-11 -59 -11 -60 -2 -72 8 -11 0 -76 -13 -104 -1 -3 -3
-9 -4 -15 -2 -5 -4 -12 -5 -15 -2 -7 -9 -48 -14 -85 -3 -16 -5 -32 -6 -35 -1
-3 -1 -15 0 -27 1 -12 -4 -32 -10 -43 -6 -12 -14 -33 -16 -46 -2 -13 -6 -36
-9 -51 -11 -65 -18 -89 -30 -103 -19 -23 -27 -52 -12 -45 6 4 4 0 -6 -8 -11
-9 -14 -18 -8 -21 6 -4 7 -14 4 -23 -5 -13 -2 -15 11 -10 12 5 24 1 35 -11 9
-10 36 -32 61 -49 56 -38 73 -30 96 48 9 30 25 60 35 67 23 16 25 34 4 26 -9
-4 -15 0 -15 10 0 51 89 -20 94 -75 2 -19 8 -52 14 -74 6 -22 10 -61 8 -88 -1
-26 0 -50 3 -52 3 -3 6 -16 8 -28 2 -12 13 -30 24 -40 13 -10 19 -24 16 -36
-5 -20 7 -29 50 -37 27 -5 39 12 23 31 -7 8 -9 15 -4 15 5 0 3 4 -5 9 -9 6
-15 29 -16 63 -1 29 -5 83 -9 121 -7 61 -6 67 10 68 24 1 43 5 69 15 18 6 18
5 -2 -15 -25 -24 -28 -31 -13 -31 21 0 48 39 46 64 -2 14 1 23 5 20 10 -6 10
-4 14 71 2 28 6 68 11 90 4 22 8 66 9 98 0 31 3 57 8 57 4 0 7 -7 7 -15 0 -8
4 -15 9 -15 6 0 9 9 8 19 0 11 -4 18 -7 16 -11 -7 -26 9 -50 52 -15 27 -36 47
-60 58 -21 10 -40 25 -43 34 -2 10 -33 37 -68 61 -35 24 -66 46 -69 50 -3 3
-21 17 -40 30 -19 14 -43 31 -52 39 -10 8 -30 17 -45 19 -35 4 -40 9 -25 24 9
9 15 7 27 -8 14 -18 14 -18 13 8 -2 20 -8 27 -30 30 -25 4 -27 1 -34 -36z m59
-80 c6 -16 -1 -26 -19 -26 -7 0 -12 9 -11 20 1 23 22 27 30 6z m148 -193 c12
-10 33 -27 47 -39 31 -26 35 -79 11 -149 -12 -35 -23 -50 -36 -50 -10 -1 -20
2 -23 5 -3 3 -18 16 -35 28 -31 24 -39 59 -24 99 5 13 9 38 11 58 1 19 6 35
10 35 4 0 8 7 8 15 0 19 5 19 31 -2z m70 -285 c-9 -24 -41 -38 -41 -17 0 12
28 38 42 39 4 0 4 -10 -1 -22z m149 -98 c0 -5 -5 -10 -11 -10 -5 0 -7 5 -4 10
3 6 8 10 11 10 2 0 4 -4 4 -10z m-534 -15 c-1 -8 -5 -17 -8 -21 -5 -4 -4 16 1
34 3 9 9 -1 7 -13z m138 -54 c3 -5 -1 -11 -9 -15 -15 -6 -29 7 -18 18 9 9 21
8 27 -3z"/>
<path d="M4297 2015 c-4 -8 -2 -17 3 -20 6 -4 10 1 10 10 0 10 5 13 12 9 7 -4
8 -3 4 4 -10 16 -23 15 -29 -3z"/>
<path d="M875 2345 c-17 -7 -38 -22 -48 -33 -16 -17 -16 -20 -2 -25 9 -4 15
-1 15 8 0 8 8 15 19 15 10 0 26 11 35 25 9 14 15 25 14 24 -2 0 -17 -7 -33
-14z"/>
<path d="M610 2161 c-34 -34 -66 -61 -70 -61 -5 0 -17 -14 -27 -30 -9 -17 -25
-32 -34 -35 -8 -3 -33 -21 -55 -41 -52 -47 -76 -60 -67 -37 5 13 1 12 -17 -5
-25 -23 -40 -82 -21 -82 11 0 16 29 11 60 -1 8 2 12 6 7 4 -4 8 -32 9 -62 1
-30 8 -61 15 -69 10 -13 15 -12 33 5 30 29 67 53 72 47 3 -3 7 -18 8 -34 2
-16 11 -43 20 -61 9 -17 19 -51 22 -75 5 -52 12 -85 19 -96 3 -5 8 -24 11 -43
9 -51 24 -109 42 -156 12 -33 19 -41 36 -37 42 8 162 157 139 174 -4 3 -9 12
-11 20 -9 38 -42 157 -48 170 -3 8 -8 35 -10 60 -2 25 -11 55 -19 68 -17 26
-7 30 12 5 11 -15 12 -13 3 17 -5 19 -12 42 -14 51 -2 9 -12 35 -23 58 -19 39
-19 41 -2 61 9 11 22 20 29 20 6 0 11 5 11 11 0 5 4 7 10 4 5 -3 18 -1 27 4
10 6 14 11 8 11 -5 0 -4 4 4 9 12 8 12 12 2 25 -7 8 -10 20 -7 25 4 5 -1 14
-9 19 -9 5 -18 17 -19 28 -5 36 -35 25 -96 -35z m75 0 c4 -22 -9 -29 -20 -11
-7 12 2 46 11 38 2 -3 6 -15 9 -27z m-282 -306 c-6 -17 -25 -15 -31 3 -2 7 5
12 17 12 14 0 19 -5 14 -15z m294 -224 c7 -11 15 -35 18 -53 6 -37 -5 -24 -31
37 -15 38 -7 48 13 16z m-48 -222 c-23 -14 -35 9 -13 25 17 13 19 13 22 -1 2
-9 -2 -19 -9 -24z"/>
<path d="M3733 2191 c0 -10 7 -17 13 -14 7 3 10 11 7 19 -8 20 -22 17 -20 -5z"/>
<path d="M3720 1961 c0 -17 18 -21 24 -6 3 9 0 15 -9 15 -8 0 -15 -4 -15 -9z"/>
<path d="M3795 1672 c-12 -12 -4 -20 15 -15 11 3 20 9 20 12 0 9 -27 10 -35 3z"/>
<path d="M4171 1526 c-9 -11 -7 -15 8 -19 14 -3 17 0 14 14 -6 23 -7 23 -22 5z"/>
<path d="M665 1350 c-3 -5 -12 -7 -20 -3 -8 3 -15 3 -15 0 0 -13 30 -14 40 -1
7 8 10 14 7 14 -3 0 -8 -4 -12 -10z"/>
<path d="M599 1343 c-22 -5 -13 -42 9 -39 18 3 29 26 12 26 -6 0 -8 5 -5 10 3
6 5 9 3 9 -2 -1 -10 -3 -19 -6z"/>
<path d="M1589 631 c-13 -72 0 -120 39 -143 28 -16 74 -15 80 2 2 6 10 10 18
10 7 0 16 10 19 23 10 44 12 98 4 103 -13 7 -159 13 -160 5z"/>
<path d="M3168 629 c-9 -6 -11 -41 -5 -87 7 -49 70 -81 112 -58 43 24 56 48
53 101 l-3 50 -73 0 c-41 0 -78 -3 -84 -6z"/>
</g>
</svg>
